<?xml version="1.0" encoding="UTF-8"?>
<svg width="154px" height="55px" viewBox="0 0 154 55" version="1.1" xmlns="http://www.w3.org/2000/svg" xmlns:xlink="http://www.w3.org/1999/xlink">
<!-- Generator: sketchtool 52.3 (67297) - http://www.bohemiancoding.com/sketch -->
<title>DCB1A4A6-901E-4AD4-B856-10996368712B</title>
<desc>Created with sketchtool.</desc>
<defs>
  <linearGradient x1="16.6771525%" y1="11.2494188%" x2="85.7011091%" y2="84.3598152%" id="linearGradient-1">
    <stop stop-color="#F58174" offset="0%"></stop>
    <stop stop-color="#EE458A" offset="100%"></stop>
  </linearGradient>
  <ellipse id="path-2" cx="27.4132788" cy="27.5" rx="27.4132788" ry="27.5"></ellipse>
  <linearGradient x1="2.72036936%" y1="50%" x2="46.513495%" y2="50%" id="linearGradient-4">
    <stop stop-color="#000000" offset="0%"></stop>
    <stop stop-color="#000000" stop-opacity="0.112318841" offset="100%"></stop>
  </linearGradient>
</defs>
<g id="UI-Design---Pre-Release" stroke="none" stroke-width="1" fill="none" fill-rule="evenodd">
  <g id="Kintell---Advisor-Profile-Standard-v1.4" transform="translate(-166.000000, -40.000000)">
    <g id="Desktop/Patterns/Headers/Header_Logged_In">
      <g id="nav">
        <g id="logo---light-copy-4" transform="translate(166.000000, 40.000000)">
          <g id="Group-3">
            <mask id="mask-3" fill="white">
              <use xlink:href="#path-2"></use>
            </mask>
            <use id="Oval-3" fill="url(#linearGradient-1)" fill-rule="nonzero" xlink:href="#path-2"></use>
            <polygon id="Rectangle-5" fill="url(#linearGradient-4)" fill-rule="nonzero" opacity="0.245033482" mask="url(#mask-3)" transform="translate(45.787720, 51.983041) rotate(-305.000000) translate(-45.787720, -51.983041) " points="9.25857265 37.881324 90.1615437 37.7752068 90.2037353 66.1908749 20.6675532 66.0295694 1.37170527 49.144938 12.3246282 49.2561421"></polygon>
            <path d="M21.2917745,40.1602484 C20.7578088,40.1602484 20.3509839,40.0390902 20.0712876,39.7967702 C19.7915913,39.5544501 19.6517453,39.203729 19.6517453,38.7445963 L19.6517453,14.8315528 C19.6517453,14.3469127 19.7915913,13.9834381 20.0712876,13.741118 C20.3509839,13.498798 20.7578088,13.3776398 21.2917745,13.3776398 C21.8003132,13.3776398 22.2007815,13.5051747 22.4931912,13.7602484 C22.785601,14.0153222 22.9318037,14.3724201 22.9318037,14.8315528 L22.9318037,38.7445963 C22.9318037,39.203729 22.785601,39.5544501 22.4931912,39.7967702 C22.2007815,40.0390902 21.8003132,40.1602484 21.2917745,40.1602484 Z M37.6157861,38.5915528 C37.6157861,39.0251782 37.4568701,39.3950295 37.1390334,39.701118 C36.8211967,40.0072065 36.4207285,40.1602484 35.9376167,40.1602484 C35.5816396,40.1602484 35.2892342,40.0901042 35.0603917,39.9498137 C34.8315493,39.8095231 34.5772838,39.5480764 34.2975875,39.1654658 L25.7160393,28.0315528 C25.436343,27.6744496 25.2456438,27.3811192 25.1439361,27.1515528 C25.0422284,26.9219864 24.9913752,26.6924235 24.9913752,26.4628571 C24.9913752,26.182276 25.0422284,25.9335829 25.1439361,25.7167702 C25.2456438,25.4999575 25.4236297,25.2257574 25.6778991,24.8941615 L33.6492038,14.3724224 C33.9543271,13.9898118 34.2149493,13.7283651 34.4310782,13.5880745 C34.6472072,13.447784 34.8951161,13.3776398 35.1748124,13.3776398 C35.6324972,13.3776398 36.0202522,13.524305 36.3380889,13.8176398 C36.6559256,14.1109746 36.8148416,14.4744492 36.8148416,14.9080745 C36.8148416,15.0866262 36.7830584,15.2651751 36.7194911,15.4437267 C36.6559237,15.6222783 36.5605741,15.7880738 36.4334395,15.941118 L28.5765554,26.2332919 L37.3106644,37.6732919 C37.4123721,37.8263362 37.4886518,37.9730014 37.5395057,38.1132919 C37.5903595,38.2535825 37.6157861,38.4130012 37.6157861,38.5915528 Z" id="K" fill="#FFFFFF" mask="url(#mask-3)"></path>
          </g>
          <path d="M83.8583973,34.6772069 C84.3155129,35.3623188 84.4913267,35.6363636 84.4913267,36.2187088 C84.4913267,36.9380764 83.9287228,37.7944664 82.803515,37.7944664 C82.2760738,37.7944664 81.7134699,37.5546772 81.2563543,36.7325428 L74.575433,26.2503294 L71.3404606,29.7444005 L71.3404606,36.1844532 C71.3404606,37.0750988 70.6723685,37.7944664 69.6878117,37.7944664 C68.7032549,37.7944664 68,37.14361 68,36.1844532 L68,15.0487484 C68,14.1238472 68.6680921,13.4044796 69.6878117,13.4044796 C70.6372058,13.4044796 71.3404606,14.055336 71.3404606,15.0487484 L71.3404606,25.942029 L81.5024935,14.055336 C81.9244464,13.5757576 82.3463993,13.4044796 82.8738405,13.4044796 C83.752909,13.4044796 84.4561639,14.0895916 84.4561639,14.9459816 C84.4561639,15.4598155 84.2100247,15.9736495 83.7880718,16.3847167 L76.7203604,23.9552042 L83.8583973,34.6772069 Z M91.00681,14.56917 C91.00681,15.8366271 90.4090434,16.4874835 89.3189984,16.4874835 C88.2992788,16.4874835 87.5608612,15.8023715 87.5608612,14.6376812 C87.5608612,13.4387352 88.2992788,12.7536232 89.3189984,12.7536232 C90.3387179,12.7536232 91.00681,13.4044796 91.00681,14.56917 Z M90.9716473,36.0474308 C90.9716473,37.1093544 90.3035552,37.7944664 89.3189984,37.7944664 C88.404767,37.7944664 87.7015122,37.1093544 87.7015122,36.0474308 L87.7015122,21.3175231 C87.7015122,20.2555995 88.3696043,19.5704875 89.3189984,19.5704875 C90.3035552,19.5704875 90.9716473,20.2555995 90.9716473,21.3175231 L90.9716473,36.0474308 Z M110.356695,36.0474308 C110.356695,37.0750988 109.688603,37.7944664 108.739209,37.7944664 C107.754652,37.7944664 107.121722,37.0408432 107.121722,36.0474308 L107.121722,26.9354414 C107.121722,24.1264822 105.68005,22.3109354 103.042844,22.3109354 C101.460521,22.3109354 99.9485227,23.0988142 98.8233149,24.1264822 L98.8233149,36.0474308 C98.8233149,37.0750988 98.1552228,37.7944664 97.170666,37.7944664 C96.2212719,37.7944664 95.5531798,37.0750988 95.5531798,36.0474308 L95.5531798,21.3175231 C95.5531798,20.2898551 96.2212719,19.5704875 97.170666,19.5704875 C98.1200601,19.5704875 98.8233149,20.2898551 98.8233149,21.2147563 L98.6475012,22.173913 C100.194662,20.4268775 102.163776,19.3649539 104.554842,19.3649539 C107.754652,19.3649539 110.356695,21.7628458 110.356695,25.5309618 L110.356695,36.0474308 Z M122.005939,19.7417655 C122.849845,19.7417655 123.517937,20.2555995 123.517937,21.0092227 C123.517937,21.9341238 122.814682,22.4479578 122.005939,22.4479578 L119.017105,22.4479578 L119.017105,36.0474308 C119.017105,37.0750988 118.349013,37.7944664 117.434782,37.7944664 C116.450225,37.7944664 115.817296,37.0750988 115.817296,36.0474308 L115.817296,22.4479578 L114.270135,22.4479578 C113.391067,22.4479578 112.7933,21.8998682 112.7933,21.0434783 C112.7933,20.2213439 113.426229,19.7417655 114.270135,19.7417655 L115.817296,19.7417655 L115.817296,16.5559947 C115.817296,15.4940711 116.450225,14.8089592 117.399619,14.8089592 C118.349013,14.8089592 119.017105,15.4940711 119.017105,16.5217391 L119.017105,19.7417655 L122.005939,19.7417655 Z M139.070245,26.969697 C139.035082,29.2648221 138.050526,29.8471673 135.624296,29.8471673 L127.642353,29.8471673 C128.064306,33.8550725 130.807,35.2938076 133.760671,35.2938076 C135.624296,35.2938076 136.503365,34.7799736 137.171457,34.7799736 C138.015363,34.7799736 138.472478,35.3280632 138.472478,35.9789196 C138.472478,36.5955204 138.120851,36.9380764 137.804386,37.1093544 C136.679179,37.657444 135.167181,38 133.268392,38 C127.958818,38 124.407381,34.7114625 124.407381,29.1620553 C124.407381,23.5098814 127.677516,19.3649539 132.776114,19.3649539 C137.487922,19.3649539 139.246059,22.9275362 139.070245,26.969697 Z M135.940761,27.6205534 C136.397877,23.6811594 134.850716,21.9683794 132.002534,21.9683794 C131.05314,21.9683794 130.174071,22.2081686 129.576304,22.5849802 C128.697236,23.2700922 127.572028,25.1198946 127.46654,27.6205534 L135.940761,27.6205534 Z M145.972519,36.0474308 C145.972519,37.0750988 145.304427,37.7944664 144.355032,37.7944664 C143.405638,37.7944664 142.737546,37.0750988 142.737546,36.0474308 L142.737546,13.7470356 C142.737546,12.685112 143.405638,12 144.355032,12 C145.304427,12 145.972519,12.685112 145.972519,13.7470356 L145.972519,36.0474308 Z M154,36.0474308 C154,37.0750988 153.331908,37.7944664 152.382514,37.7944664 C151.43312,37.7944664 150.765028,37.0750988 150.765028,36.0474308 L150.765028,13.7470356 C150.765028,12.685112 151.43312,12 152.382514,12 C153.331908,12 154,12.685112 154,13.7470356 L154,36.0474308 Z" id="Kintell" fill="#FFFFFF"></path>
        </g>
      </g>
    </g>
  </g>
</g>
</svg>
