<?xml version="1.0" encoding="UTF-8"?>
<svg width="55px" height="55px" viewBox="0 0 55 55" version="1.1" xmlns="http://www.w3.org/2000/svg" xmlns:xlink="http://www.w3.org/1999/xlink">
    <!-- Generator: Sketch 52.2 (67145) - http://www.bohemiancoding.com/sketch -->
    <title>logo - light copy 4</title>
    <desc>Created with Sketch.</desc>
    <defs>
        <linearGradient x1="16.6771525%" y1="11.2494188%" x2="85.7011091%" y2="84.3598152%" id="linearGradient-1">
            <stop stop-color="#F58174" offset="0%"></stop>
            <stop stop-color="#EE458A" offset="100%"></stop>
        </linearGradient>
        <ellipse id="path-2" cx="27.4132788" cy="27.5" rx="27.4132788" ry="27.5"></ellipse>
        <linearGradient x1="2.72036936%" y1="50%" x2="46.513495%" y2="50%" id="linearGradient-4">
            <stop stop-color="#000000" offset="0%"></stop>
            <stop stop-color="#000000" stop-opacity="0.112318841" offset="100%"></stop>
        </linearGradient>
    </defs>
    <g id="-" stroke="none" stroke-width="1" fill="none" fill-rule="evenodd">
        <g id="Desktop/Patterns/Headers/Header_Logged_In" transform="translate(-166.000000, -40.000000)">
            <g id="nav">
                <g id="logo---light-copy-4" transform="translate(166.000000, 40.000000)">
                    <g id="Group-3">
                        <mask id="mask-3" fill="white">
                            <use xlink:href="#path-2"></use>
                        </mask>
                        <use id="Oval-3" fill="url(#linearGradient-1)" fill-rule="nonzero" xlink:href="#path-2"></use>
                        <polygon id="Rectangle-5" fill="url(#linearGradient-4)" fill-rule="nonzero" opacity="0.245033482" mask="url(#mask-3)" transform="translate(45.787720, 51.983041) rotate(-305.000000) translate(-45.787720, -51.983041) " points="9.25857265 37.881324 90.1615437 37.7752068 90.2037353 66.1908749 20.6675532 66.0295694 1.37170527 49.144938 12.3246282 49.2561421"></polygon>
                        <path d="M21.2917745,40.1602484 C20.7578088,40.1602484 20.3509839,40.0390902 20.0712876,39.7967702 C19.7915913,39.5544501 19.6517453,39.203729 19.6517453,38.7445963 L19.6517453,14.8315528 C19.6517453,14.3469127 19.7915913,13.9834381 20.0712876,13.741118 C20.3509839,13.498798 20.7578088,13.3776398 21.2917745,13.3776398 C21.8003132,13.3776398 22.2007815,13.5051747 22.4931912,13.7602484 C22.785601,14.0153222 22.9318037,14.3724201 22.9318037,14.8315528 L22.9318037,38.7445963 C22.9318037,39.203729 22.785601,39.5544501 22.4931912,39.7967702 C22.2007815,40.0390902 21.8003132,40.1602484 21.2917745,40.1602484 Z M37.6157861,38.5915528 C37.6157861,39.0251782 37.4568701,39.3950295 37.1390334,39.701118 C36.8211967,40.0072065 36.4207285,40.1602484 35.9376167,40.1602484 C35.5816396,40.1602484 35.2892342,40.0901042 35.0603917,39.9498137 C34.8315493,39.8095231 34.5772838,39.5480764 34.2975875,39.1654658 L25.7160393,28.0315528 C25.436343,27.6744496 25.2456438,27.3811192 25.1439361,27.1515528 C25.0422284,26.9219864 24.9913752,26.6924235 24.9913752,26.4628571 C24.9913752,26.182276 25.0422284,25.9335829 25.1439361,25.7167702 C25.2456438,25.4999575 25.4236297,25.2257574 25.6778991,24.8941615 L33.6492038,14.3724224 C33.9543271,13.9898118 34.2149493,13.7283651 34.4310782,13.5880745 C34.6472072,13.447784 34.8951161,13.3776398 35.1748124,13.3776398 C35.6324972,13.3776398 36.0202522,13.524305 36.3380889,13.8176398 C36.6559256,14.1109746 36.8148416,14.4744492 36.8148416,14.9080745 C36.8148416,15.0866262 36.7830584,15.2651751 36.7194911,15.4437267 C36.6559237,15.6222783 36.5605741,15.7880738 36.4334395,15.941118 L28.5765554,26.2332919 L37.3106644,37.6732919 C37.4123721,37.8263362 37.4886518,37.9730014 37.5395057,38.1132919 C37.5903595,38.2535825 37.6157861,38.4130012 37.6157861,38.5915528 Z" id="K" fill="#FFFFFF" mask="url(#mask-3)"></path>
                    </g>
                </g>
            </g>
        </g>
    </g>
</svg>
